TITLE "Fuzzy Warbles Hinges"
PERFORMER "Andy Partridge"
REM DATE "2006-09-25"
REM DISCID 5B07BC09
FILE "Andy Partridge - Fuzzy Warbles Hinges.flac" WAVE
  TRACK 01 AUDIO
    TITLE "Gold"
    PERFORMER "Andy Partridge"
    SONGWRITER "Andy Partridge"
    ISRC GBFHR0600204
    INDEX 01 00:00:00
  TRACK 02 AUDIO
    TITLE "Now We All Dead (It Doesn't Matter)"
    PERFORMER "Andy Partridge"
    ISRC GBFHR0600205
    INDEX 01 03:31:12
  TRACK 03 AUDIO
    TITLE "Rain of Blows (early version)"
    PERFORMER "Andy Partridge"
    ISRC GBFHR0600206
    INDEX 01 06:47:15
  TRACK 04 AUDIO
    TITLE "Reign of Blows"
    PERFORMER "Andy Partridge"
    ISRC GBFHR0600207
    INDEX 01 08:31:58
  TRACK 05 AUDIO
    TITLE "Jump"
    PERFORMER "Andy Partridge"
    SONGWRITER "Andy Partridge"
    ISRC GBFHR0600208
    INDEX 01 13:38:28
  TRACK 06 AUDIO
    TITLE "Shake You Donkey Up"
    PERFORMER "Andy Partridge"
    SONGWRITER "Andy Partridge"
    ISRC GBFHR0600209
    INDEX 01 19:14:08
  TRACK 07 AUDIO
    TITLE "Happy Families"
    PERFORMER "Andy Partridge"
    ISRC GBFHR0600210
    INDEX 01 22:41:35
  TRACK 08 AUDIO
    TITLE "Here Comes President Kill Again"
    PERFORMER "Andy Partridge"
    SONGWRITER "Andy Partridge"
    ISRC GBFHR0600211
    INDEX 01 25:11:43
  TRACK 09 AUDIO
    TITLE "Beating of Hearts"
    PERFORMER "Andy Partridge"
    SONGWRITER "Andy Partridge"
    ISRC GBFHR0600212
    INDEX 01 28:43:16
